<?xml version="1.0" encoding="iso-8859-1"?>
<!-- Generator: Adobe Illustrator 18.0.0, SVG Export Plug-In . SVG Version: 6.00 Build 0)  -->
<!DOCTYPE svg PUBLIC "-//W3C//DTD SVG 1.1//EN" "http://www.w3.org/Graphics/SVG/1.1/DTD/svg11.dtd">
<svg xmlns="http://www.w3.org/2000/svg" xmlns:xlink="http://www.w3.org/1999/xlink" version="1.1" id="Capa_1" x="0px" y="0px" viewBox="0 0 58.981 58.981" style="enable-background:new 0 0 58.981 58.981;" xml:space="preserve" width="512px" height="512px">
<g>
	<path d="M58.171,43.364l-1.445-0.278c-0.677-0.13-1.21-0.573-1.462-1.216c-0.253-0.642-0.163-1.329,0.245-1.885l0.907-1.236   c0.292-0.398,0.25-0.95-0.1-1.299l-1.959-1.958c-0.339-0.339-0.871-0.389-1.268-0.121l-1.217,0.824   c-0.331,0.224-0.71,0.343-1.099,0.343c-0.844,0-1.787-0.576-1.956-1.676l-0.233-1.515C48.51,32.86,48.09,32.5,47.597,32.5h-2.77   c-0.479,0-0.892,0.341-0.982,0.812l-0.358,1.865c-0.201,1.051-1.13,1.601-1.942,1.602c-0.389,0-0.769-0.119-1.1-0.343l-1.572-1.064   c-0.396-0.268-0.928-0.218-1.268,0.121l-1.958,1.958c-0.35,0.349-0.392,0.9-0.1,1.299l0.907,1.236   c0.408,0.556,0.497,1.243,0.245,1.885c-0.252,0.643-0.785,1.086-1.464,1.217l-1.443,0.278c-0.471,0.09-0.811,0.502-0.811,0.981   v2.769c0,0.493,0.36,0.913,0.848,0.988l1.515,0.233c0.683,0.105,1.232,0.528,1.508,1.16c0.276,0.633,0.212,1.323-0.175,1.895   l-0.824,1.217c-0.269,0.396-0.218,0.929,0.121,1.268l1.958,1.959c0.349,0.349,0.899,0.39,1.299,0.1l1.236-0.907   c0.342-0.252,0.742-0.385,1.156-0.385c0.813,0,1.742,0.551,1.944,1.603l0.277,1.443c0.091,0.471,0.503,0.812,0.982,0.812h2.77   c0.493,0,0.913-0.36,0.988-0.848l0.164-1.065c0.169-1.1,1.113-1.676,1.958-1.676c0.413,0,0.813,0.134,1.156,0.386l0.869,0.638   c0.399,0.293,0.95,0.25,1.299-0.1l1.958-1.959c0.339-0.339,0.39-0.871,0.121-1.268l-0.824-1.217   c-0.387-0.571-0.451-1.262-0.175-1.895c0.275-0.632,0.825-1.055,1.507-1.16l1.516-0.233c0.487-0.075,0.848-0.495,0.848-0.988   v-2.769C58.981,43.867,58.642,43.455,58.171,43.364z M56.981,46.258l-0.668,0.103c-1.354,0.208-2.488,1.082-3.035,2.337   c-0.548,1.255-0.416,2.682,0.352,3.815l0.361,0.533l-0.768,0.768l-0.177-0.13c-0.689-0.505-1.498-0.772-2.34-0.772   c-1.979,0-3.635,1.418-3.935,3.371L46.739,56.5h-1.086l-0.121-0.632c-0.359-1.869-2.004-3.226-3.909-3.226   c-0.843,0-1.651,0.268-2.34,0.771l-0.544,0.399l-0.768-0.768l0.361-0.533c0.768-1.134,0.899-2.56,0.352-3.815   c-0.547-1.255-1.683-2.129-3.036-2.337l-0.667-0.103v-1.086l0.632-0.121c1.346-0.259,2.447-1.175,2.948-2.45   c0.5-1.274,0.315-2.694-0.494-3.799l-0.4-0.544l0.768-0.768l0.889,0.602c0.663,0.449,1.431,0.687,2.221,0.687   c1.905-0.001,3.548-1.356,3.907-3.225l0.202-1.054h1.086l0.103,0.667c0.301,1.953,1.955,3.371,3.934,3.371   c0.789,0,1.556-0.237,2.219-0.687l0.533-0.361l0.768,0.768l-0.399,0.544c-0.81,1.104-0.994,2.524-0.494,3.8   c0.5,1.274,1.602,2.19,2.946,2.449l0.634,0.122V46.258z" fill="#ffffff"/>
	<path d="M45.981,40.5c-2.757,0-5,2.243-5,5s2.243,5,5,5s5-2.243,5-5S48.738,40.5,45.981,40.5z M45.981,48.5c-1.654,0-3-1.346-3-3   s1.346-3,3-3s3,1.346,3,3S47.636,48.5,45.981,48.5z" fill="#ffffff"/>
	<path d="M31.605,38.448c-0.292-0.398-0.25-0.95,0.1-1.299l0.503-0.503C30.292,35.601,29,33.68,29,31.481c0-3.309,2.916-6,6.5-6   c1.746,0,3.331,0.642,4.5,1.68v-9.511l-17,2.684v17.248c0,0.013-0.007,0.025-0.008,0.038c-0.081,3.244-2.959,5.861-6.492,5.861   c-3.584,0-6.5-2.691-6.5-6s2.916-6,6.5-6c1.746,0,3.331,0.642,4.5,1.68v-13.68v-2.714v-3.286c0-0.492,0.358-0.911,0.844-0.987l19-3   c0.29-0.047,0.583,0.037,0.805,0.228C41.872,9.911,42,10.189,42,10.481v1v5v13.082c0.109-0.041,0.226-0.064,0.349-0.064h7.821   c0.493,0,0.913,0.36,0.988,0.848l0.378,2.453l1.922-1.303c0.396-0.268,0.929-0.217,1.268,0.121L58,34.891V2.047   c0-0.865-0.701-1.565-1.565-1.565H1.565C0.701,0.481,0,1.182,0,2.047v45.869c0,0.865,0.701,1.565,1.565,1.565h28.416V41.87   c0-0.479,0.34-0.892,0.811-0.981l2.282-0.44L31.605,38.448z" fill="#ffffff"/>
</g>
<g>
</g>
<g>
</g>
<g>
</g>
<g>
</g>
<g>
</g>
<g>
</g>
<g>
</g>
<g>
</g>
<g>
</g>
<g>
</g>
<g>
</g>
<g>
</g>
<g>
</g>
<g>
</g>
<g>
</g>
</svg>
